<svg width="20" height="20" viewBox="0 0 20 20" fill="none" xmlns="http://www.w3.org/2000/svg">
<path d="M1.71831 9.70998C1.64886 9.89708 1.64886 10.1029 1.71831 10.29C2.39473 11.9301 3.54291 13.3324 5.01728 14.3192C6.49166 15.306 8.22584 15.8328 9.99997 15.8328C11.7741 15.8328 13.5083 15.306 14.9827 14.3192C16.457 13.3324 17.6052 11.9301 18.2816 10.29C18.3511 10.1029 18.3511 9.89708 18.2816 9.70998C17.6052 8.06986 16.457 6.66752 14.9827 5.68074C13.5083 4.69395 11.7741 4.16717 9.99997 4.16717C8.22584 4.16717 6.49166 4.69395 5.01728 5.68074C3.54291 6.66752 2.39473 8.06986 1.71831 9.70998Z" stroke="#99A1AF" stroke-width="1.66667" stroke-linecap="round" stroke-linejoin="round"/>
<path d="M10 12.5C11.3807 12.5 12.5 11.3807 12.5 9.99998C12.5 8.61927 11.3807 7.49999 10 7.49999C8.61931 7.49999 7.50002 8.61927 7.50002 9.99998C7.50002 11.3807 8.61931 12.5 10 12.5Z" stroke="#99A1AF" stroke-width="1.66667" stroke-linecap="round" stroke-linejoin="round"/>
</svg>
